<mxfile host="app.diagrams.net" agent="Mozilla/5.0 (Windows NT 10.0; Win64; x64) AppleWebKit/537.36 (KHTML, like Gecko) Chrome/136.0.0.0 Safari/537.36 Edg/136.0.0.0" version="27.1.1">
  <diagram name="Страница — 1" id="SJayiGweKQYrUUsE0k2S">
    <mxGraphModel dx="5153" dy="5098" grid="0" gridSize="10" guides="1" tooltips="1" connect="1" arrows="1" fold="1" page="1" pageScale="1" pageWidth="827" pageHeight="1169" background="none" math="0" shadow="1">
      <root>
        <mxCell id="0" />
        <mxCell id="1" parent="0" />
        <mxCell id="jSzUtSrFljYYdIaAZMLE-379" value="" style="group;strokeColor=default;" vertex="1" connectable="0" parent="1">
          <mxGeometry x="253" y="-479" width="2938" height="859" as="geometry" />
        </mxCell>
        <mxCell id="jSzUtSrFljYYdIaAZMLE-52" style="edgeStyle=orthogonalEdgeStyle;rounded=0;hachureGap=4;orthogonalLoop=1;jettySize=auto;html=1;entryX=0;entryY=0.5;entryDx=0;entryDy=0;fontFamily=Architects Daughter;fontSource=https%3A%2F%2Ffonts.googleapis.com%2Fcss%3Ffamily%3DArchitects%2BDaughter;fontColor=default;sketch=1;curveFitting=1;jiggle=2;labelBackgroundColor=none;" edge="1" parent="jSzUtSrFljYYdIaAZMLE-379" source="jSzUtSrFljYYdIaAZMLE-5" target="jSzUtSrFljYYdIaAZMLE-6">
          <mxGeometry relative="1" as="geometry" />
        </mxCell>
        <mxCell id="jSzUtSrFljYYdIaAZMLE-54" style="edgeStyle=orthogonalEdgeStyle;rounded=0;hachureGap=4;orthogonalLoop=1;jettySize=auto;html=1;entryX=0;entryY=0.5;entryDx=0;entryDy=0;fontFamily=Architects Daughter;fontSource=https%3A%2F%2Ffonts.googleapis.com%2Fcss%3Ffamily%3DArchitects%2BDaughter;fontColor=default;sketch=1;curveFitting=1;jiggle=2;labelBackgroundColor=none;" edge="1" parent="jSzUtSrFljYYdIaAZMLE-379" source="jSzUtSrFljYYdIaAZMLE-5" target="jSzUtSrFljYYdIaAZMLE-18">
          <mxGeometry relative="1" as="geometry" />
        </mxCell>
        <mxCell id="jSzUtSrFljYYdIaAZMLE-59" style="edgeStyle=orthogonalEdgeStyle;rounded=0;hachureGap=4;orthogonalLoop=1;jettySize=auto;html=1;fontFamily=Architects Daughter;fontSource=https%3A%2F%2Ffonts.googleapis.com%2Fcss%3Ffamily%3DArchitects%2BDaughter;fontColor=default;sketch=1;curveFitting=1;jiggle=2;labelBackgroundColor=none;" edge="1" parent="jSzUtSrFljYYdIaAZMLE-379" source="jSzUtSrFljYYdIaAZMLE-7" target="jSzUtSrFljYYdIaAZMLE-8">
          <mxGeometry relative="1" as="geometry" />
        </mxCell>
        <mxCell id="jSzUtSrFljYYdIaAZMLE-70" style="edgeStyle=orthogonalEdgeStyle;rounded=0;hachureGap=4;orthogonalLoop=1;jettySize=auto;html=1;entryX=0;entryY=0.5;entryDx=0;entryDy=0;fontFamily=Architects Daughter;fontSource=https%3A%2F%2Ffonts.googleapis.com%2Fcss%3Ffamily%3DArchitects%2BDaughter;fontColor=default;exitX=0.5;exitY=0;exitDx=0;exitDy=0;curved=1;sketch=1;curveFitting=1;jiggle=2;labelBackgroundColor=none;" edge="1" parent="jSzUtSrFljYYdIaAZMLE-379" source="jSzUtSrFljYYdIaAZMLE-8" target="jSzUtSrFljYYdIaAZMLE-9">
          <mxGeometry relative="1" as="geometry" />
        </mxCell>
        <mxCell id="jSzUtSrFljYYdIaAZMLE-71" style="edgeStyle=orthogonalEdgeStyle;rounded=0;hachureGap=4;orthogonalLoop=1;jettySize=auto;html=1;fontFamily=Architects Daughter;fontSource=https%3A%2F%2Ffonts.googleapis.com%2Fcss%3Ffamily%3DArchitects%2BDaughter;fontColor=default;sketch=1;curveFitting=1;jiggle=2;labelBackgroundColor=none;" edge="1" parent="jSzUtSrFljYYdIaAZMLE-379" source="jSzUtSrFljYYdIaAZMLE-8" target="jSzUtSrFljYYdIaAZMLE-18">
          <mxGeometry relative="1" as="geometry" />
        </mxCell>
        <mxCell id="jSzUtSrFljYYdIaAZMLE-68" style="edgeStyle=orthogonalEdgeStyle;rounded=0;hachureGap=4;orthogonalLoop=1;jettySize=auto;html=1;entryX=1;entryY=0.5;entryDx=0;entryDy=0;fontFamily=Architects Daughter;fontSource=https%3A%2F%2Ffonts.googleapis.com%2Fcss%3Ffamily%3DArchitects%2BDaughter;fontColor=default;exitX=0.5;exitY=1;exitDx=0;exitDy=0;curved=1;sketch=1;curveFitting=1;jiggle=2;labelBackgroundColor=none;" edge="1" parent="jSzUtSrFljYYdIaAZMLE-379" source="jSzUtSrFljYYdIaAZMLE-9" target="jSzUtSrFljYYdIaAZMLE-8">
          <mxGeometry relative="1" as="geometry" />
        </mxCell>
        <mxCell id="jSzUtSrFljYYdIaAZMLE-96" style="edgeStyle=orthogonalEdgeStyle;rounded=0;sketch=1;hachureGap=4;jiggle=2;curveFitting=1;orthogonalLoop=1;jettySize=auto;html=1;exitX=0.496;exitY=0;exitDx=0;exitDy=0;entryX=0.5;entryY=0;entryDx=0;entryDy=0;fontFamily=Architects Daughter;fontSource=https%3A%2F%2Ffonts.googleapis.com%2Fcss%3Ffamily%3DArchitects%2BDaughter;curved=1;exitPerimeter=0;" edge="1" parent="jSzUtSrFljYYdIaAZMLE-379" source="jSzUtSrFljYYdIaAZMLE-10" target="jSzUtSrFljYYdIaAZMLE-11">
          <mxGeometry relative="1" as="geometry">
            <Array as="points">
              <mxPoint x="859" y="190" />
              <mxPoint x="1329" y="190" />
            </Array>
          </mxGeometry>
        </mxCell>
        <mxCell id="jSzUtSrFljYYdIaAZMLE-64" style="edgeStyle=orthogonalEdgeStyle;rounded=0;hachureGap=4;orthogonalLoop=1;jettySize=auto;html=1;exitX=0.5;exitY=1;exitDx=0;exitDy=0;entryX=0.75;entryY=1;entryDx=0;entryDy=0;fontFamily=Architects Daughter;fontSource=https%3A%2F%2Ffonts.googleapis.com%2Fcss%3Ffamily%3DArchitects%2BDaughter;fontColor=default;curved=1;sketch=1;curveFitting=1;jiggle=2;labelBackgroundColor=none;" edge="1" parent="jSzUtSrFljYYdIaAZMLE-379" source="jSzUtSrFljYYdIaAZMLE-11" target="jSzUtSrFljYYdIaAZMLE-10">
          <mxGeometry relative="1" as="geometry">
            <Array as="points">
              <mxPoint x="1329" y="427" />
              <mxPoint x="924" y="427" />
            </Array>
          </mxGeometry>
        </mxCell>
        <mxCell id="jSzUtSrFljYYdIaAZMLE-127" style="edgeStyle=orthogonalEdgeStyle;rounded=0;sketch=1;hachureGap=4;jiggle=2;curveFitting=1;orthogonalLoop=1;jettySize=auto;html=1;entryX=0.5;entryY=0;entryDx=0;entryDy=0;fontFamily=Architects Daughter;fontSource=https%3A%2F%2Ffonts.googleapis.com%2Fcss%3Ffamily%3DArchitects%2BDaughter;" edge="1" parent="jSzUtSrFljYYdIaAZMLE-379" source="jSzUtSrFljYYdIaAZMLE-12" target="jSzUtSrFljYYdIaAZMLE-18">
          <mxGeometry relative="1" as="geometry" />
        </mxCell>
        <mxCell id="jSzUtSrFljYYdIaAZMLE-76" style="edgeStyle=orthogonalEdgeStyle;rounded=0;hachureGap=4;orthogonalLoop=1;jettySize=auto;html=1;exitX=1;exitY=0.5;exitDx=0;exitDy=0;entryX=0;entryY=0.5;entryDx=0;entryDy=0;fontFamily=Architects Daughter;fontSource=https%3A%2F%2Ffonts.googleapis.com%2Fcss%3Ffamily%3DArchitects%2BDaughter;fontColor=default;sketch=1;curveFitting=1;jiggle=2;labelBackgroundColor=none;" edge="1" parent="jSzUtSrFljYYdIaAZMLE-379" source="jSzUtSrFljYYdIaAZMLE-12" target="jSzUtSrFljYYdIaAZMLE-14">
          <mxGeometry relative="1" as="geometry" />
        </mxCell>
        <mxCell id="jSzUtSrFljYYdIaAZMLE-77" style="edgeStyle=orthogonalEdgeStyle;rounded=0;hachureGap=4;orthogonalLoop=1;jettySize=auto;html=1;exitX=1;exitY=0;exitDx=0;exitDy=0;entryX=0;entryY=0.5;entryDx=0;entryDy=0;fontFamily=Architects Daughter;fontSource=https%3A%2F%2Ffonts.googleapis.com%2Fcss%3Ffamily%3DArchitects%2BDaughter;fontColor=default;sketch=1;curveFitting=1;jiggle=2;labelBackgroundColor=none;" edge="1" parent="jSzUtSrFljYYdIaAZMLE-379" source="jSzUtSrFljYYdIaAZMLE-14" target="jSzUtSrFljYYdIaAZMLE-15">
          <mxGeometry relative="1" as="geometry" />
        </mxCell>
        <mxCell id="jSzUtSrFljYYdIaAZMLE-79" value="&lt;font style=&quot;font-size: 14px;&quot;&gt;Дубликат&lt;/font&gt;" style="edgeLabel;html=1;align=center;verticalAlign=middle;resizable=0;points=[];rounded=0;hachureGap=4;fontFamily=Architects Daughter;fontSource=https%3A%2F%2Ffonts.googleapis.com%2Fcss%3Ffamily%3DArchitects%2BDaughter;sketch=1;curveFitting=1;jiggle=2;labelBackgroundColor=none;" vertex="1" connectable="0" parent="jSzUtSrFljYYdIaAZMLE-77">
          <mxGeometry x="0.0062" relative="1" as="geometry">
            <mxPoint x="-41" y="-12" as="offset" />
          </mxGeometry>
        </mxCell>
        <mxCell id="jSzUtSrFljYYdIaAZMLE-78" style="edgeStyle=orthogonalEdgeStyle;rounded=0;hachureGap=4;orthogonalLoop=1;jettySize=auto;html=1;exitX=1;exitY=1;exitDx=0;exitDy=0;fontFamily=Architects Daughter;fontSource=https%3A%2F%2Ffonts.googleapis.com%2Fcss%3Ffamily%3DArchitects%2BDaughter;fontColor=default;sketch=1;curveFitting=1;jiggle=2;labelBackgroundColor=none;" edge="1" parent="jSzUtSrFljYYdIaAZMLE-379" target="jSzUtSrFljYYdIaAZMLE-16">
          <mxGeometry relative="1" as="geometry">
            <mxPoint x="2298.0000000000005" y="318.00000000000045" as="sourcePoint" />
            <mxPoint x="2474" y="395" as="targetPoint" />
            <Array as="points">
              <mxPoint x="2298" y="336" />
              <mxPoint x="2429" y="336" />
              <mxPoint x="2429" y="366" />
            </Array>
          </mxGeometry>
        </mxCell>
        <mxCell id="jSzUtSrFljYYdIaAZMLE-80" value="&lt;font style=&quot;font-size: 14px;&quot;&gt;Нет совпадений&lt;/font&gt;" style="edgeLabel;html=1;align=center;verticalAlign=middle;resizable=0;points=[];rounded=0;hachureGap=4;fontFamily=Architects Daughter;fontSource=https%3A%2F%2Ffonts.googleapis.com%2Fcss%3Ffamily%3DArchitects%2BDaughter;sketch=1;curveFitting=1;jiggle=2;labelBackgroundColor=none;" vertex="1" connectable="0" parent="jSzUtSrFljYYdIaAZMLE-78">
          <mxGeometry x="0.2655" relative="1" as="geometry">
            <mxPoint x="-55" y="-27" as="offset" />
          </mxGeometry>
        </mxCell>
        <mxCell id="jSzUtSrFljYYdIaAZMLE-14" value="P ≥ порог?" style="rhombus;strokeWidth=2;whiteSpace=wrap;labelBackgroundColor=none;rounded=0;sketch=1;curveFitting=1;jiggle=2;" vertex="1" parent="jSzUtSrFljYYdIaAZMLE-379">
          <mxGeometry x="2201" y="228" width="128" height="128" as="geometry" />
        </mxCell>
        <mxCell id="jSzUtSrFljYYdIaAZMLE-15" value="PostgreSQL&#xa;UPDATE product_id" style="whiteSpace=wrap;strokeWidth=2;labelBackgroundColor=none;rounded=0;sketch=1;curveFitting=1;jiggle=2;" vertex="1" parent="jSzUtSrFljYYdIaAZMLE-379">
          <mxGeometry x="2546" y="182.5" width="214" height="78" as="geometry" />
        </mxCell>
        <mxCell id="jSzUtSrFljYYdIaAZMLE-16" value="PostgreSQL&#xa;manual_review" style="whiteSpace=wrap;strokeWidth=2;labelBackgroundColor=none;rounded=0;sketch=1;curveFitting=1;jiggle=2;" vertex="1" parent="jSzUtSrFljYYdIaAZMLE-379">
          <mxGeometry x="2508" y="341.5" width="177" height="54" as="geometry" />
        </mxCell>
        <mxCell id="jSzUtSrFljYYdIaAZMLE-17" value="Power Apps UI&#xa;ручная проверка" style="whiteSpace=wrap;strokeWidth=2;labelBackgroundColor=none;rounded=0;sketch=1;curveFitting=1;jiggle=2;" vertex="1" parent="jSzUtSrFljYYdIaAZMLE-379">
          <mxGeometry x="2755" y="329.5" width="183" height="78" as="geometry" />
        </mxCell>
        <mxCell id="jSzUtSrFljYYdIaAZMLE-18" value="Blob Logs + Cost Mgmt" style="whiteSpace=wrap;strokeWidth=2;labelBackgroundColor=none;rounded=0;sketch=1;curveFitting=1;jiggle=2;strokeColor=light-dark(#000000,#E7FF51);" vertex="1" parent="jSzUtSrFljYYdIaAZMLE-379">
          <mxGeometry x="1615" y="602.13" width="270" height="123.25" as="geometry" />
        </mxCell>
        <mxCell id="jSzUtSrFljYYdIaAZMLE-19" value="" style="curved=1;startArrow=none;endArrow=block;exitX=1;exitY=0.49;entryX=0;entryY=0.49;rounded=0;labelBackgroundColor=none;fontColor=default;sketch=1;curveFitting=1;jiggle=2;" edge="1" parent="jSzUtSrFljYYdIaAZMLE-379" source="jSzUtSrFljYYdIaAZMLE-3" target="jSzUtSrFljYYdIaAZMLE-5">
          <mxGeometry relative="1" as="geometry">
            <Array as="points" />
          </mxGeometry>
        </mxCell>
        <mxCell id="jSzUtSrFljYYdIaAZMLE-21" value="" style="curved=1;startArrow=none;endArrow=block;exitX=1;exitY=0.49;entryX=0;entryY=0.49;rounded=0;labelBackgroundColor=none;fontColor=default;sketch=1;curveFitting=1;jiggle=2;" edge="1" parent="jSzUtSrFljYYdIaAZMLE-379" source="jSzUtSrFljYYdIaAZMLE-6" target="jSzUtSrFljYYdIaAZMLE-7">
          <mxGeometry relative="1" as="geometry">
            <Array as="points" />
          </mxGeometry>
        </mxCell>
        <mxCell id="jSzUtSrFljYYdIaAZMLE-29" value="" style="curved=1;startArrow=none;endArrow=block;exitX=1;exitY=0.5;entryX=0;entryY=0.5;rounded=0;labelBackgroundColor=none;fontColor=default;sketch=1;curveFitting=1;jiggle=2;" edge="1" parent="jSzUtSrFljYYdIaAZMLE-379" source="jSzUtSrFljYYdIaAZMLE-11" target="jSzUtSrFljYYdIaAZMLE-12">
          <mxGeometry relative="1" as="geometry">
            <Array as="points" />
          </mxGeometry>
        </mxCell>
        <mxCell id="jSzUtSrFljYYdIaAZMLE-35" value="" style="curved=1;startArrow=none;endArrow=block;exitX=1;exitY=0.5;entryX=0;entryY=0.5;rounded=0;labelBackgroundColor=none;fontColor=default;sketch=1;curveFitting=1;jiggle=2;" edge="1" parent="jSzUtSrFljYYdIaAZMLE-379" source="jSzUtSrFljYYdIaAZMLE-16" target="jSzUtSrFljYYdIaAZMLE-17">
          <mxGeometry relative="1" as="geometry">
            <Array as="points" />
          </mxGeometry>
        </mxCell>
        <mxCell id="jSzUtSrFljYYdIaAZMLE-41" value="" style="group;fillColor=none;rounded=0;sketch=1;curveFitting=1;jiggle=2;labelBackgroundColor=none;strokeColor=default;textShadow=0;labelBorderColor=none;" vertex="1" connectable="0" parent="jSzUtSrFljYYdIaAZMLE-379">
          <mxGeometry y="314" width="429" height="469" as="geometry" />
        </mxCell>
        <mxCell id="jSzUtSrFljYYdIaAZMLE-81" value="&lt;span style=&quot;font-family: Helvetica;&quot;&gt;&lt;font style=&quot;font-size: 36px;&quot;&gt;&amp;nbsp;PostgreSQL&amp;nbsp;&lt;/font&gt;&lt;/span&gt;" style="text;html=1;align=center;verticalAlign=middle;whiteSpace=wrap;rounded=0;fontFamily=Architects Daughter;fontSource=https%3A%2F%2Ffonts.googleapis.com%2Fcss%3Ffamily%3DArchitects%2BDaughter;sketch=1;curveFitting=1;jiggle=2;labelBackgroundColor=none;" vertex="1" parent="jSzUtSrFljYYdIaAZMLE-41">
          <mxGeometry x="77" y="16" width="233" height="30" as="geometry" />
        </mxCell>
        <mxCell id="jSzUtSrFljYYdIaAZMLE-123" value="" style="group" vertex="1" connectable="0" parent="jSzUtSrFljYYdIaAZMLE-41">
          <mxGeometry x="62" y="270" width="260" height="160" as="geometry" />
        </mxCell>
        <mxCell id="jSzUtSrFljYYdIaAZMLE-3" value="Таблицы поставщиков (owner_id*)" style="whiteSpace=wrap;strokeWidth=2;labelBackgroundColor=none;rounded=0;sketch=1;curveFitting=1;jiggle=2;" vertex="1" parent="jSzUtSrFljYYdIaAZMLE-123">
          <mxGeometry width="260" height="160" as="geometry" />
        </mxCell>
        <mxCell id="jSzUtSrFljYYdIaAZMLE-103" value="&lt;span style=&quot;font-family: Helvetica;&quot;&gt;&lt;i&gt;&lt;font style=&quot;color: light-dark(rgb(0, 0, 0), rgb(133, 133, 133));&quot;&gt;Свежие выгрузки (остатки, цены),&amp;nbsp;&lt;/font&gt;&lt;/i&gt;&lt;/span&gt;&lt;div&gt;&lt;span style=&quot;font-family: Helvetica;&quot;&gt;&lt;i&gt;&lt;font style=&quot;color: light-dark(rgb(0, 0, 0), rgb(133, 133, 133));&quot;&gt;их надо «привязать» к товарам ind.&lt;/font&gt;&lt;/i&gt;&lt;/span&gt;&lt;/div&gt;" style="text;strokeColor=none;align=center;fillColor=none;html=1;verticalAlign=middle;whiteSpace=wrap;rounded=0;fontFamily=Architects Daughter;fontSource=https%3A%2F%2Ffonts.googleapis.com%2Fcss%3Ffamily%3DArchitects%2BDaughter;" vertex="1" parent="jSzUtSrFljYYdIaAZMLE-123">
          <mxGeometry y="6" width="259" height="62" as="geometry" />
        </mxCell>
        <mxCell id="jSzUtSrFljYYdIaAZMLE-139" value="&lt;font face=&quot;Helvetica&quot; color=&quot;#7b7b7b&quot;&gt;&lt;i&gt;Кто выполняет:&lt;br&gt;PostgreSQL&lt;/i&gt;&lt;/font&gt;" style="text;strokeColor=none;align=center;fillColor=none;html=1;verticalAlign=middle;whiteSpace=wrap;rounded=0;fontFamily=Architects Daughter;fontSource=https%3A%2F%2Ffonts.googleapis.com%2Fcss%3Ffamily%3DArchitects%2BDaughter;" vertex="1" parent="jSzUtSrFljYYdIaAZMLE-123">
          <mxGeometry x="4" y="98" width="252" height="62" as="geometry" />
        </mxCell>
        <mxCell id="jSzUtSrFljYYdIaAZMLE-124" value="" style="group" vertex="1" connectable="0" parent="jSzUtSrFljYYdIaAZMLE-41">
          <mxGeometry x="53" y="79" width="260" height="166" as="geometry" />
        </mxCell>
        <mxCell id="jSzUtSrFljYYdIaAZMLE-4" value="Таблица ind (434k)" style="whiteSpace=wrap;strokeWidth=2;labelBackgroundColor=none;rounded=0;sketch=1;curveFitting=1;jiggle=2;" vertex="1" parent="jSzUtSrFljYYdIaAZMLE-124">
          <mxGeometry x="9" width="250" height="163.5" as="geometry" />
        </mxCell>
        <mxCell id="jSzUtSrFljYYdIaAZMLE-105" value="&lt;font face=&quot;Helvetica&quot; color=&quot;#858585&quot;&gt;&lt;i&gt;Мастер-каталог, из которого берём «истинный» product_id.&lt;/i&gt;&lt;/font&gt;" style="text;strokeColor=none;align=center;fillColor=none;html=1;verticalAlign=middle;whiteSpace=wrap;rounded=0;fontFamily=Architects Daughter;fontSource=https%3A%2F%2Ffonts.googleapis.com%2Fcss%3Ffamily%3DArchitects%2BDaughter;" vertex="1" parent="jSzUtSrFljYYdIaAZMLE-124">
          <mxGeometry x="7" width="252" height="62" as="geometry" />
        </mxCell>
        <mxCell id="jSzUtSrFljYYdIaAZMLE-137" value="&lt;font face=&quot;Helvetica&quot; color=&quot;#7b7b7b&quot;&gt;&lt;i&gt;Кто выполняет:&lt;br&gt;PostgreSQL&lt;/i&gt;&lt;/font&gt;" style="text;strokeColor=none;align=center;fillColor=none;html=1;verticalAlign=middle;whiteSpace=wrap;rounded=0;fontFamily=Architects Daughter;fontSource=https%3A%2F%2Ffonts.googleapis.com%2Fcss%3Ffamily%3DArchitects%2BDaughter;" vertex="1" parent="jSzUtSrFljYYdIaAZMLE-124">
          <mxGeometry x="8" y="104" width="252" height="62" as="geometry" />
        </mxCell>
        <mxCell id="jSzUtSrFljYYdIaAZMLE-56" style="edgeStyle=orthogonalEdgeStyle;rounded=0;hachureGap=4;orthogonalLoop=1;jettySize=auto;html=1;entryX=0.001;entryY=0.632;entryDx=0;entryDy=0;entryPerimeter=0;fontFamily=Architects Daughter;fontSource=https%3A%2F%2Ffonts.googleapis.com%2Fcss%3Ffamily%3DArchitects%2BDaughter;fontColor=default;sketch=1;curveFitting=1;jiggle=2;labelBackgroundColor=none;" edge="1" parent="jSzUtSrFljYYdIaAZMLE-379" source="jSzUtSrFljYYdIaAZMLE-4" target="jSzUtSrFljYYdIaAZMLE-10">
          <mxGeometry relative="1" as="geometry">
            <Array as="points">
              <mxPoint x="481" y="475" />
              <mxPoint x="481" y="358" />
            </Array>
          </mxGeometry>
        </mxCell>
        <mxCell id="jSzUtSrFljYYdIaAZMLE-57" value="&lt;font style=&quot;font-size: 14px;&quot;&gt;Эмбендинги подготовленный заранее&lt;/font&gt;" style="edgeLabel;html=1;align=center;verticalAlign=middle;resizable=0;points=[];rounded=0;hachureGap=4;fontFamily=Architects Daughter;fontSource=https%3A%2F%2Ffonts.googleapis.com%2Fcss%3Ffamily%3DArchitects%2BDaughter;sketch=1;curveFitting=1;jiggle=2;labelBackgroundColor=none;" vertex="1" connectable="0" parent="jSzUtSrFljYYdIaAZMLE-56">
          <mxGeometry x="-0.0268" y="-1" relative="1" as="geometry">
            <mxPoint x="113" y="-44" as="offset" />
          </mxGeometry>
        </mxCell>
        <mxCell id="jSzUtSrFljYYdIaAZMLE-58" style="edgeStyle=orthogonalEdgeStyle;rounded=0;hachureGap=4;orthogonalLoop=1;jettySize=auto;html=1;entryX=0.467;entryY=1.003;entryDx=0;entryDy=0;entryPerimeter=0;fontFamily=Architects Daughter;fontSource=https%3A%2F%2Ffonts.googleapis.com%2Fcss%3Ffamily%3DArchitects%2BDaughter;fontColor=default;sketch=1;curveFitting=1;jiggle=2;labelBackgroundColor=none;" edge="1" parent="jSzUtSrFljYYdIaAZMLE-379" source="jSzUtSrFljYYdIaAZMLE-8" target="jSzUtSrFljYYdIaAZMLE-10">
          <mxGeometry relative="1" as="geometry" />
        </mxCell>
        <mxCell id="jSzUtSrFljYYdIaAZMLE-107" value="" style="group" vertex="1" connectable="0" parent="jSzUtSrFljYYdIaAZMLE-379">
          <mxGeometry x="457" y="576" width="286" height="175.5" as="geometry" />
        </mxCell>
        <mxCell id="jSzUtSrFljYYdIaAZMLE-5" value="ADF COPY&#xa;из PostgreSQL в Blob" style="whiteSpace=wrap;strokeWidth=2;labelBackgroundColor=none;rounded=0;arcSize=15;sketch=1;curveFitting=1;jiggle=2;" vertex="1" parent="jSzUtSrFljYYdIaAZMLE-107">
          <mxGeometry width="286" height="175.5" as="geometry" />
        </mxCell>
        <mxCell id="jSzUtSrFljYYdIaAZMLE-106" value="&lt;font face=&quot;Helvetica&quot; color=&quot;#858585&quot;&gt;&lt;i&gt;Копирует данные поставщиков батчами в Blob (CSV/Parquet) для последующей чистки и батч-обработки.&lt;/i&gt;&lt;/font&gt;" style="text;strokeColor=none;align=center;fillColor=none;html=1;verticalAlign=middle;whiteSpace=wrap;rounded=0;fontFamily=Architects Daughter;fontSource=https%3A%2F%2Ffonts.googleapis.com%2Fcss%3Ffamily%3DArchitects%2BDaughter;" vertex="1" parent="jSzUtSrFljYYdIaAZMLE-107">
          <mxGeometry x="13.5" y="8" width="259" height="62" as="geometry" />
        </mxCell>
        <mxCell id="jSzUtSrFljYYdIaAZMLE-140" value="&lt;font face=&quot;Helvetica&quot; color=&quot;#7b7b7b&quot;&gt;&lt;i&gt;Кто выполняет:&lt;br&gt;ADF&amp;nbsp; (Copy Activity)&lt;/i&gt;&lt;/font&gt;" style="text;strokeColor=none;align=center;fillColor=none;html=1;verticalAlign=middle;whiteSpace=wrap;rounded=0;fontFamily=Architects Daughter;fontSource=https%3A%2F%2Ffonts.googleapis.com%2Fcss%3Ffamily%3DArchitects%2BDaughter;" vertex="1" parent="jSzUtSrFljYYdIaAZMLE-107">
          <mxGeometry x="13.5" y="116" width="259" height="62" as="geometry" />
        </mxCell>
        <mxCell id="jSzUtSrFljYYdIaAZMLE-110" value="" style="group" vertex="1" connectable="0" parent="jSzUtSrFljYYdIaAZMLE-379">
          <mxGeometry x="802" y="685" width="292" height="174" as="geometry" />
        </mxCell>
        <mxCell id="jSzUtSrFljYYdIaAZMLE-6" value="Azure Blob Storage&#xa;raw CSV" style="whiteSpace=wrap;strokeWidth=2;labelBackgroundColor=none;rounded=0;sketch=1;curveFitting=1;jiggle=2;strokeColor=light-dark(#000000,#E7FF51);" vertex="1" parent="jSzUtSrFljYYdIaAZMLE-110">
          <mxGeometry width="292" height="174" as="geometry" />
        </mxCell>
        <mxCell id="jSzUtSrFljYYdIaAZMLE-108" value="&lt;font face=&quot;Helvetica&quot; color=&quot;#7b7b7b&quot;&gt;&lt;i&gt;Хранит сырые файлы поставщика, лог-файлы и отчёты.&lt;/i&gt;&lt;/font&gt;" style="text;strokeColor=none;align=center;fillColor=none;html=1;verticalAlign=middle;whiteSpace=wrap;rounded=0;fontFamily=Architects Daughter;fontSource=https%3A%2F%2Ffonts.googleapis.com%2Fcss%3Ffamily%3DArchitects%2BDaughter;" vertex="1" parent="jSzUtSrFljYYdIaAZMLE-110">
          <mxGeometry x="20" y="5" width="259" height="62" as="geometry" />
        </mxCell>
        <mxCell id="jSzUtSrFljYYdIaAZMLE-141" value="&lt;font face=&quot;Helvetica&quot; color=&quot;#7b7b7b&quot;&gt;&lt;i&gt;Кто выполняет:&lt;br&gt;Blob Hot tier&lt;br&gt;&lt;/i&gt;&lt;table&gt;&lt;tbody&gt;&lt;tr&gt;&lt;td data-end=&quot;947&quot; data-start=&quot;938&quot; data-col-size=&quot;sm&quot;&gt;&lt;/td&gt;&lt;/tr&gt;&lt;/tbody&gt;&lt;/table&gt;&lt;/font&gt;" style="text;strokeColor=none;align=center;fillColor=none;html=1;verticalAlign=middle;whiteSpace=wrap;rounded=0;fontFamily=Architects Daughter;fontSource=https%3A%2F%2Ffonts.googleapis.com%2Fcss%3Ffamily%3DArchitects%2BDaughter;" vertex="1" parent="jSzUtSrFljYYdIaAZMLE-110">
          <mxGeometry x="16.5" y="125" width="259" height="44" as="geometry" />
        </mxCell>
        <mxCell id="jSzUtSrFljYYdIaAZMLE-111" value="" style="group" vertex="1" connectable="0" parent="jSzUtSrFljYYdIaAZMLE-379">
          <mxGeometry x="1165" y="706" width="263" height="139" as="geometry" />
        </mxCell>
        <mxCell id="jSzUtSrFljYYdIaAZMLE-7" value="ADF Mapping Data Flow&#xa;«очистка строк»" style="whiteSpace=wrap;strokeWidth=2;labelBackgroundColor=none;rounded=0;sketch=1;curveFitting=1;jiggle=2;strokeColor=light-dark(#000000,#E7FF51);" vertex="1" parent="jSzUtSrFljYYdIaAZMLE-111">
          <mxGeometry width="260" height="135" as="geometry" />
        </mxCell>
        <mxCell id="jSzUtSrFljYYdIaAZMLE-109" value="&lt;font face=&quot;Helvetica&quot; color=&quot;#838383&quot;&gt;&lt;i&gt;Нормализует brand, убирает мусорные символы.&lt;/i&gt;&lt;/font&gt;" style="text;strokeColor=none;align=center;fillColor=none;html=1;verticalAlign=middle;whiteSpace=wrap;rounded=0;fontFamily=Architects Daughter;fontSource=https%3A%2F%2Ffonts.googleapis.com%2Fcss%3Ffamily%3DArchitects%2BDaughter;" vertex="1" parent="jSzUtSrFljYYdIaAZMLE-111">
          <mxGeometry x="1" y="-3" width="259" height="62" as="geometry" />
        </mxCell>
        <mxCell id="jSzUtSrFljYYdIaAZMLE-142" value="&lt;font face=&quot;Helvetica&quot; color=&quot;#7c7c7c&quot;&gt;&lt;i&gt;Кто выполняет:&lt;br&gt;ADF Data Flow (Spark)&lt;/i&gt;&lt;/font&gt;" style="text;strokeColor=none;align=center;fillColor=none;html=1;verticalAlign=middle;whiteSpace=wrap;rounded=0;fontFamily=Architects Daughter;fontSource=https%3A%2F%2Ffonts.googleapis.com%2Fcss%3Ffamily%3DArchitects%2BDaughter;" vertex="1" parent="jSzUtSrFljYYdIaAZMLE-111">
          <mxGeometry x="4" y="77" width="259" height="62" as="geometry" />
        </mxCell>
        <mxCell id="jSzUtSrFljYYdIaAZMLE-115" value="" style="group" vertex="1" connectable="0" parent="jSzUtSrFljYYdIaAZMLE-379">
          <mxGeometry x="1066" y="457" width="294" height="148" as="geometry" />
        </mxCell>
        <mxCell id="jSzUtSrFljYYdIaAZMLE-8" value="Azure Function /embed" style="whiteSpace=wrap;strokeWidth=2;labelBackgroundColor=none;rounded=0;sketch=1;curveFitting=1;jiggle=2;" vertex="1" parent="jSzUtSrFljYYdIaAZMLE-115">
          <mxGeometry width="294" height="148" as="geometry" />
        </mxCell>
        <mxCell id="jSzUtSrFljYYdIaAZMLE-112" value="&lt;font face=&quot;Helvetica&quot; color=&quot;#7b7b7b&quot;&gt;&lt;i&gt;Принимает батч товаров, вызывает модель эмбеддинга, возвращает векторы.&lt;/i&gt;&lt;/font&gt;" style="text;strokeColor=none;align=center;fillColor=none;html=1;verticalAlign=middle;whiteSpace=wrap;rounded=0;fontFamily=Architects Daughter;fontSource=https%3A%2F%2Ffonts.googleapis.com%2Fcss%3Ffamily%3DArchitects%2BDaughter;" vertex="1" parent="jSzUtSrFljYYdIaAZMLE-115">
          <mxGeometry x="18" y="4" width="259" height="62" as="geometry" />
        </mxCell>
        <mxCell id="jSzUtSrFljYYdIaAZMLE-143" value="&lt;font face=&quot;Helvetica&quot; color=&quot;#838383&quot;&gt;&lt;i&gt;Кто выполняет:&lt;br&gt;Azure Functions (Consumption)&lt;/i&gt;&lt;/font&gt;" style="text;strokeColor=none;align=center;fillColor=none;html=1;verticalAlign=middle;whiteSpace=wrap;rounded=0;fontFamily=Architects Daughter;fontSource=https%3A%2F%2Ffonts.googleapis.com%2Fcss%3Ffamily%3DArchitects%2BDaughter;" vertex="1" parent="jSzUtSrFljYYdIaAZMLE-115">
          <mxGeometry x="18" y="86" width="259" height="62" as="geometry" />
        </mxCell>
        <mxCell id="jSzUtSrFljYYdIaAZMLE-116" value="&lt;font face=&quot;Helvetica&quot; color=&quot;#7c7c7c&quot;&gt;&lt;i&gt;Складывает трассировки в Blob, шлёт алерты при перерасходе бюджета.&lt;span style=&quot;white-space:pre&quot;&gt;&#x9;&lt;/span&gt;&lt;/i&gt;&lt;/font&gt;" style="text;strokeColor=none;align=center;fillColor=none;html=1;verticalAlign=middle;whiteSpace=wrap;rounded=0;fontFamily=Architects Daughter;fontSource=https%3A%2F%2Ffonts.googleapis.com%2Fcss%3Ffamily%3DArchitects%2BDaughter;" vertex="1" parent="jSzUtSrFljYYdIaAZMLE-379">
          <mxGeometry x="1620.5" y="598" width="259" height="62" as="geometry" />
        </mxCell>
        <mxCell id="jSzUtSrFljYYdIaAZMLE-131" value="" style="group" vertex="1" connectable="0" parent="jSzUtSrFljYYdIaAZMLE-379">
          <mxGeometry x="2056" width="214.5" height="150" as="geometry" />
        </mxCell>
        <mxCell id="jSzUtSrFljYYdIaAZMLE-13" value="Azure OpenAI GPT‑4o mini" style="whiteSpace=wrap;strokeWidth=2;labelBackgroundColor=none;rounded=0;sketch=1;curveFitting=1;jiggle=2;" vertex="1" parent="jSzUtSrFljYYdIaAZMLE-131">
          <mxGeometry width="200" height="150" as="geometry" />
        </mxCell>
        <mxCell id="jSzUtSrFljYYdIaAZMLE-130" value="&lt;font face=&quot;Helvetica&quot; color=&quot;#838383&quot;&gt;&lt;i&gt;LLM-классификатор: «дубликат / не дубликат» + вероятность.&lt;/i&gt;&lt;/font&gt;" style="text;strokeColor=none;align=center;fillColor=none;html=1;verticalAlign=middle;whiteSpace=wrap;rounded=0;fontFamily=Architects Daughter;fontSource=https%3A%2F%2Ffonts.googleapis.com%2Fcss%3Ffamily%3DArchitects%2BDaughter;" vertex="1" parent="jSzUtSrFljYYdIaAZMLE-131">
          <mxGeometry x="11.5" y="5" width="177" height="62" as="geometry" />
        </mxCell>
        <mxCell id="jSzUtSrFljYYdIaAZMLE-149" value="&lt;font face=&quot;Helvetica&quot; color=&quot;#7c7c7c&quot;&gt;&lt;i&gt;Кто выполняет:&lt;br&gt;OpenAI endpoint (Azure)&lt;/i&gt;&lt;/font&gt;" style="text;strokeColor=none;align=center;fillColor=none;html=1;verticalAlign=middle;whiteSpace=wrap;rounded=0;fontFamily=Architects Daughter;fontSource=https%3A%2F%2Ffonts.googleapis.com%2Fcss%3Ffamily%3DArchitects%2BDaughter;" vertex="1" parent="jSzUtSrFljYYdIaAZMLE-131">
          <mxGeometry x="-14.5" y="88" width="229" height="62" as="geometry" />
        </mxCell>
        <mxCell id="jSzUtSrFljYYdIaAZMLE-132" value="" style="group" vertex="1" connectable="0" parent="jSzUtSrFljYYdIaAZMLE-379">
          <mxGeometry x="1741" y="216" width="245" height="153" as="geometry" />
        </mxCell>
        <mxCell id="jSzUtSrFljYYdIaAZMLE-12" value="Azure Function /validate" style="whiteSpace=wrap;strokeWidth=2;labelBackgroundColor=none;rounded=0;sketch=1;curveFitting=1;jiggle=2;" vertex="1" parent="jSzUtSrFljYYdIaAZMLE-132">
          <mxGeometry width="239" height="153" as="geometry" />
        </mxCell>
        <mxCell id="jSzUtSrFljYYdIaAZMLE-129" value="&lt;font face=&quot;Helvetica&quot; color=&quot;#7c7c7c&quot;&gt;&lt;i&gt;Отправляет товар + кандидатов в LLM, получает isDuplicate, score.&lt;/i&gt;&lt;/font&gt;" style="text;strokeColor=none;align=center;fillColor=none;html=1;verticalAlign=middle;whiteSpace=wrap;rounded=0;fontFamily=Architects Daughter;fontSource=https%3A%2F%2Ffonts.googleapis.com%2Fcss%3Ffamily%3DArchitects%2BDaughter;" vertex="1" parent="jSzUtSrFljYYdIaAZMLE-132">
          <mxGeometry x="5" y="-3" width="229" height="62" as="geometry" />
        </mxCell>
        <mxCell id="jSzUtSrFljYYdIaAZMLE-148" value="&lt;font face=&quot;Helvetica&quot; color=&quot;#838383&quot;&gt;&lt;i&gt;Кто выполняет:&lt;br&gt;Azure Functions&lt;/i&gt;&lt;/font&gt;" style="text;strokeColor=none;align=center;fillColor=none;html=1;verticalAlign=middle;whiteSpace=wrap;rounded=0;fontFamily=Architects Daughter;fontSource=https%3A%2F%2Ffonts.googleapis.com%2Fcss%3Ffamily%3DArchitects%2BDaughter;" vertex="1" parent="jSzUtSrFljYYdIaAZMLE-132">
          <mxGeometry x="-14" y="91" width="259" height="62" as="geometry" />
        </mxCell>
        <mxCell id="jSzUtSrFljYYdIaAZMLE-133" value="" style="group" vertex="1" connectable="0" parent="jSzUtSrFljYYdIaAZMLE-379">
          <mxGeometry x="1481" y="346" width="244" height="142" as="geometry" />
        </mxCell>
        <mxCell id="jSzUtSrFljYYdIaAZMLE-114" value="" style="group" vertex="1" connectable="0" parent="jSzUtSrFljYYdIaAZMLE-133">
          <mxGeometry width="244" height="142" as="geometry" />
        </mxCell>
        <mxCell id="jSzUtSrFljYYdIaAZMLE-9" value="Azure OpenAI&#xa;text‑embedding‑3‑small" style="whiteSpace=wrap;strokeWidth=2;labelBackgroundColor=none;rounded=0;sketch=1;curveFitting=1;jiggle=2;" vertex="1" parent="jSzUtSrFljYYdIaAZMLE-114">
          <mxGeometry width="244" height="134" as="geometry" />
        </mxCell>
        <mxCell id="jSzUtSrFljYYdIaAZMLE-113" value="&lt;font face=&quot;Helvetica&quot; color=&quot;#838383&quot;&gt;&lt;i&gt;Генерирует 1536-D эмбеддинг названия/описания/характеристик.&lt;/i&gt;&lt;/font&gt;" style="text;strokeColor=none;align=center;fillColor=none;html=1;verticalAlign=middle;whiteSpace=wrap;rounded=0;fontFamily=Architects Daughter;fontSource=https%3A%2F%2Ffonts.googleapis.com%2Fcss%3Ffamily%3DArchitects%2BDaughter;" vertex="1" parent="jSzUtSrFljYYdIaAZMLE-114">
          <mxGeometry x="10" y="-6.5" width="229" height="62" as="geometry" />
        </mxCell>
        <mxCell id="jSzUtSrFljYYdIaAZMLE-145" value="&lt;font face=&quot;Helvetica&quot; color=&quot;#7c7c7c&quot;&gt;&lt;i&gt;Кто выполняет:&lt;br&gt;OpenAI endpoint (Azure)&lt;/i&gt;&lt;/font&gt;" style="text;strokeColor=none;align=center;fillColor=none;html=1;verticalAlign=middle;whiteSpace=wrap;rounded=0;fontFamily=Architects Daughter;fontSource=https%3A%2F%2Ffonts.googleapis.com%2Fcss%3Ffamily%3DArchitects%2BDaughter;" vertex="1" parent="jSzUtSrFljYYdIaAZMLE-114">
          <mxGeometry x="10" y="77" width="229" height="62" as="geometry" />
        </mxCell>
        <mxCell id="jSzUtSrFljYYdIaAZMLE-134" value="" style="group" vertex="1" connectable="0" parent="jSzUtSrFljYYdIaAZMLE-379">
          <mxGeometry x="1199" y="217" width="260" height="156" as="geometry" />
        </mxCell>
        <mxCell id="jSzUtSrFljYYdIaAZMLE-11" value="Гибридный запрос&#xa;BM25 + HNSW" style="whiteSpace=wrap;strokeWidth=2;labelBackgroundColor=none;rounded=0;sketch=1;curveFitting=1;jiggle=2;" vertex="1" parent="jSzUtSrFljYYdIaAZMLE-134">
          <mxGeometry width="260" height="155" as="geometry" />
        </mxCell>
        <mxCell id="jSzUtSrFljYYdIaAZMLE-126" value="&lt;font face=&quot;Helvetica&quot; color=&quot;#838383&quot;&gt;&lt;i&gt;Одним вызовом ищет по тексту и вектору; RRF возвращает топ-N дубликатов.&lt;/i&gt;&lt;/font&gt;" style="text;strokeColor=none;align=center;fillColor=none;html=1;verticalAlign=middle;whiteSpace=wrap;rounded=0;fontFamily=Architects Daughter;fontSource=https%3A%2F%2Ffonts.googleapis.com%2Fcss%3Ffamily%3DArchitects%2BDaughter;" vertex="1" parent="jSzUtSrFljYYdIaAZMLE-134">
          <mxGeometry x="6" y="4" width="248" height="62" as="geometry" />
        </mxCell>
        <mxCell id="jSzUtSrFljYYdIaAZMLE-146" value="&lt;font face=&quot;Helvetica&quot; color=&quot;#838383&quot;&gt;&lt;i&gt;Кто выполняет:&lt;br&gt;&lt;/i&gt;Azure AI Search&lt;i&gt;&lt;/i&gt;&lt;/font&gt;" style="text;strokeColor=none;align=center;fillColor=none;html=1;verticalAlign=middle;whiteSpace=wrap;rounded=0;fontFamily=Architects Daughter;fontSource=https%3A%2F%2Ffonts.googleapis.com%2Fcss%3Ffamily%3DArchitects%2BDaughter;" vertex="1" parent="jSzUtSrFljYYdIaAZMLE-134">
          <mxGeometry x="6" y="94" width="248" height="62" as="geometry" />
        </mxCell>
        <mxCell id="jSzUtSrFljYYdIaAZMLE-135" style="edgeStyle=orthogonalEdgeStyle;rounded=0;sketch=1;hachureGap=4;jiggle=2;curveFitting=1;orthogonalLoop=1;jettySize=auto;html=1;exitX=0.25;exitY=0;exitDx=0;exitDy=0;entryX=-0.005;entryY=0.446;entryDx=0;entryDy=0;entryPerimeter=0;fontFamily=Architects Daughter;fontSource=https%3A%2F%2Ffonts.googleapis.com%2Fcss%3Ffamily%3DArchitects%2BDaughter;curved=1;" edge="1" parent="jSzUtSrFljYYdIaAZMLE-379" source="jSzUtSrFljYYdIaAZMLE-12" target="jSzUtSrFljYYdIaAZMLE-13">
          <mxGeometry relative="1" as="geometry" />
        </mxCell>
        <mxCell id="jSzUtSrFljYYdIaAZMLE-136" style="edgeStyle=orthogonalEdgeStyle;rounded=0;sketch=1;hachureGap=4;jiggle=2;curveFitting=1;orthogonalLoop=1;jettySize=auto;html=1;entryX=1;entryY=0.25;entryDx=0;entryDy=0;fontFamily=Architects Daughter;fontSource=https%3A%2F%2Ffonts.googleapis.com%2Fcss%3Ffamily%3DArchitects%2BDaughter;curved=1;exitX=0.5;exitY=1;exitDx=0;exitDy=0;" edge="1" parent="jSzUtSrFljYYdIaAZMLE-379" source="jSzUtSrFljYYdIaAZMLE-13" target="jSzUtSrFljYYdIaAZMLE-12">
          <mxGeometry relative="1" as="geometry">
            <mxPoint x="2183" y="182" as="sourcePoint" />
          </mxGeometry>
        </mxCell>
        <mxCell id="jSzUtSrFljYYdIaAZMLE-147" value="&lt;font face=&quot;Helvetica&quot; color=&quot;#838383&quot;&gt;&lt;i&gt;Кто выполняет:&lt;br&gt;Blob + Azure Cost Management&lt;/i&gt;&lt;/font&gt;" style="text;strokeColor=none;align=center;fillColor=none;html=1;verticalAlign=middle;whiteSpace=wrap;rounded=0;fontFamily=Architects Daughter;fontSource=https%3A%2F%2Ffonts.googleapis.com%2Fcss%3Ffamily%3DArchitects%2BDaughter;" vertex="1" parent="jSzUtSrFljYYdIaAZMLE-379">
          <mxGeometry x="1620.5" y="670" width="259" height="62" as="geometry" />
        </mxCell>
        <mxCell id="jSzUtSrFljYYdIaAZMLE-192" value="" style="group" vertex="1" connectable="0" parent="jSzUtSrFljYYdIaAZMLE-379">
          <mxGeometry x="730" y="263" width="260" height="150" as="geometry" />
        </mxCell>
        <mxCell id="jSzUtSrFljYYdIaAZMLE-10" value="Azure AI Search&#xa;Upsert {text + vector}" style="whiteSpace=wrap;strokeWidth=2;labelBackgroundColor=none;rounded=0;sketch=1;curveFitting=1;jiggle=2;" vertex="1" parent="jSzUtSrFljYYdIaAZMLE-192">
          <mxGeometry y="4" width="260" height="145" as="geometry" />
        </mxCell>
        <mxCell id="jSzUtSrFljYYdIaAZMLE-191" value="" style="group" vertex="1" connectable="0" parent="jSzUtSrFljYYdIaAZMLE-192">
          <mxGeometry x="5" width="249" height="150" as="geometry" />
        </mxCell>
        <mxCell id="jSzUtSrFljYYdIaAZMLE-125" value="&lt;font face=&quot;Helvetica&quot; color=&quot;#7b7b7b&quot;&gt;&lt;i&gt;Записывает документ {id, text, vector} в индекс.&lt;/i&gt;&lt;/font&gt;" style="text;strokeColor=none;align=center;fillColor=none;html=1;verticalAlign=middle;whiteSpace=wrap;rounded=0;fontFamily=Architects Daughter;fontSource=https%3A%2F%2Ffonts.googleapis.com%2Fcss%3Ffamily%3DArchitects%2BDaughter;" vertex="1" parent="jSzUtSrFljYYdIaAZMLE-191">
          <mxGeometry width="248" height="62" as="geometry" />
        </mxCell>
        <mxCell id="jSzUtSrFljYYdIaAZMLE-144" value="&lt;font face=&quot;Helvetica&quot; color=&quot;#838383&quot;&gt;&lt;i&gt;Кто выполняет:&lt;br&gt;REST Activity (ADF) → AI Search&lt;/i&gt;&lt;/font&gt;" style="text;strokeColor=none;align=center;fillColor=none;html=1;verticalAlign=middle;whiteSpace=wrap;rounded=0;fontFamily=Architects Daughter;fontSource=https%3A%2F%2Ffonts.googleapis.com%2Fcss%3Ffamily%3DArchitects%2BDaughter;" vertex="1" parent="jSzUtSrFljYYdIaAZMLE-191">
          <mxGeometry x="1" y="88" width="248" height="62" as="geometry" />
        </mxCell>
        <mxCell id="jSzUtSrFljYYdIaAZMLE-380" value="" style="group;strokeColor=default;" vertex="1" connectable="0" parent="1">
          <mxGeometry x="259" y="-1931" width="3554" height="1321" as="geometry" />
        </mxCell>
        <mxCell id="jSzUtSrFljYYdIaAZMLE-197" value="" style="group" vertex="1" connectable="0" parent="jSzUtSrFljYYdIaAZMLE-380">
          <mxGeometry x="526" y="887" width="2692" height="434" as="geometry" />
        </mxCell>
        <mxCell id="jSzUtSrFljYYdIaAZMLE-195" value="" style="rounded=1;whiteSpace=wrap;html=1;sketch=1;hachureGap=4;jiggle=2;curveFitting=1;fontFamily=Architects Daughter;fontSource=https%3A%2F%2Ffonts.googleapis.com%2Fcss%3Ffamily%3DArchitects%2BDaughter;arcSize=5;" vertex="1" parent="jSzUtSrFljYYdIaAZMLE-197">
          <mxGeometry width="2694" height="436" as="geometry" />
        </mxCell>
        <mxCell id="jSzUtSrFljYYdIaAZMLE-199" value="" style="group" vertex="1" connectable="0" parent="jSzUtSrFljYYdIaAZMLE-197">
          <mxGeometry x="64" y="163" width="286" height="175.5" as="geometry" />
        </mxCell>
        <mxCell id="jSzUtSrFljYYdIaAZMLE-200" value="ADF COPY&#xa;из PostgreSQL в Blob" style="whiteSpace=wrap;strokeWidth=2;labelBackgroundColor=none;rounded=0;arcSize=15;sketch=1;curveFitting=1;jiggle=2;" vertex="1" parent="jSzUtSrFljYYdIaAZMLE-199">
          <mxGeometry width="286" height="175.5" as="geometry" />
        </mxCell>
        <mxCell id="jSzUtSrFljYYdIaAZMLE-201" value="&lt;font face=&quot;Helvetica&quot; color=&quot;#858585&quot;&gt;&lt;i&gt;Копирует данные поставщиков батчами в Blob (CSV/Parquet) для последующей чистки и батч-обработки.&lt;/i&gt;&lt;/font&gt;" style="text;strokeColor=none;align=center;fillColor=none;html=1;verticalAlign=middle;whiteSpace=wrap;rounded=0;fontFamily=Architects Daughter;fontSource=https%3A%2F%2Ffonts.googleapis.com%2Fcss%3Ffamily%3DArchitects%2BDaughter;" vertex="1" parent="jSzUtSrFljYYdIaAZMLE-199">
          <mxGeometry x="13.5" y="8" width="259" height="62" as="geometry" />
        </mxCell>
        <mxCell id="jSzUtSrFljYYdIaAZMLE-231" value="" style="group" vertex="1" connectable="0" parent="jSzUtSrFljYYdIaAZMLE-197">
          <mxGeometry x="378" y="199.5" width="263" height="139" as="geometry" />
        </mxCell>
        <mxCell id="jSzUtSrFljYYdIaAZMLE-232" value="ADF Mapping Data Flow&#xa;«очистка строк»" style="whiteSpace=wrap;strokeWidth=2;labelBackgroundColor=none;rounded=0;sketch=1;curveFitting=1;jiggle=2;strokeColor=light-dark(#000000,#E7FF51);" vertex="1" parent="jSzUtSrFljYYdIaAZMLE-231">
          <mxGeometry width="260" height="135" as="geometry" />
        </mxCell>
        <mxCell id="jSzUtSrFljYYdIaAZMLE-233" value="&lt;font face=&quot;Helvetica&quot; color=&quot;#838383&quot;&gt;&lt;i&gt;Нормализует brand, убирает мусорные символы.&lt;/i&gt;&lt;/font&gt;" style="text;strokeColor=none;align=center;fillColor=none;html=1;verticalAlign=middle;whiteSpace=wrap;rounded=0;fontFamily=Architects Daughter;fontSource=https%3A%2F%2Ffonts.googleapis.com%2Fcss%3Ffamily%3DArchitects%2BDaughter;" vertex="1" parent="jSzUtSrFljYYdIaAZMLE-231">
          <mxGeometry x="1" y="-3" width="259" height="62" as="geometry" />
        </mxCell>
        <mxCell id="jSzUtSrFljYYdIaAZMLE-196" value="&lt;font style=&quot;font-size: 48px;&quot;&gt;Azure Data Factory (ADF)&lt;/font&gt;" style="text;html=1;align=center;verticalAlign=middle;resizable=0;points=[];autosize=1;strokeColor=none;fillColor=none;fontFamily=Architects Daughter;fontSource=https%3A%2F%2Ffonts.googleapis.com%2Fcss%3Ffamily%3DArchitects%2BDaughter;" vertex="1" parent="jSzUtSrFljYYdIaAZMLE-197">
          <mxGeometry x="1037" y="20" width="620" height="70" as="geometry" />
        </mxCell>
        <mxCell id="jSzUtSrFljYYdIaAZMLE-267" style="edgeStyle=orthogonalEdgeStyle;rounded=0;hachureGap=4;orthogonalLoop=1;jettySize=auto;html=1;exitX=1;exitY=0;exitDx=0;exitDy=0;entryX=0;entryY=0.5;entryDx=0;entryDy=0;fontFamily=Architects Daughter;fontSource=https%3A%2F%2Ffonts.googleapis.com%2Fcss%3Ffamily%3DArchitects%2BDaughter;fontColor=default;sketch=1;curveFitting=1;jiggle=2;labelBackgroundColor=none;" edge="1" parent="jSzUtSrFljYYdIaAZMLE-197" source="jSzUtSrFljYYdIaAZMLE-271" target="jSzUtSrFljYYdIaAZMLE-272">
          <mxGeometry relative="1" as="geometry" />
        </mxCell>
        <mxCell id="jSzUtSrFljYYdIaAZMLE-268" value="&lt;font style=&quot;font-size: 14px;&quot;&gt;Дубликат&lt;/font&gt;" style="edgeLabel;html=1;align=center;verticalAlign=middle;resizable=0;points=[];rounded=0;hachureGap=4;fontFamily=Architects Daughter;fontSource=https%3A%2F%2Ffonts.googleapis.com%2Fcss%3Ffamily%3DArchitects%2BDaughter;sketch=1;curveFitting=1;jiggle=2;labelBackgroundColor=none;" vertex="1" connectable="0" parent="jSzUtSrFljYYdIaAZMLE-267">
          <mxGeometry x="0.0062" relative="1" as="geometry">
            <mxPoint x="-41" y="-12" as="offset" />
          </mxGeometry>
        </mxCell>
        <mxCell id="jSzUtSrFljYYdIaAZMLE-269" style="edgeStyle=orthogonalEdgeStyle;rounded=0;hachureGap=4;orthogonalLoop=1;jettySize=auto;html=1;exitX=1;exitY=1;exitDx=0;exitDy=0;fontFamily=Architects Daughter;fontSource=https%3A%2F%2Ffonts.googleapis.com%2Fcss%3Ffamily%3DArchitects%2BDaughter;fontColor=default;sketch=1;curveFitting=1;jiggle=2;labelBackgroundColor=none;" edge="1" parent="jSzUtSrFljYYdIaAZMLE-197" target="jSzUtSrFljYYdIaAZMLE-273">
          <mxGeometry relative="1" as="geometry">
            <mxPoint x="2187.0000000000005" y="175.50000000000045" as="sourcePoint" />
            <mxPoint x="2363" y="252.5" as="targetPoint" />
            <Array as="points">
              <mxPoint x="2187" y="193.5" />
              <mxPoint x="2318" y="193.5" />
              <mxPoint x="2318" y="223.5" />
            </Array>
          </mxGeometry>
        </mxCell>
        <mxCell id="jSzUtSrFljYYdIaAZMLE-270" value="&lt;font style=&quot;font-size: 14px;&quot;&gt;Нет совпадений&lt;/font&gt;" style="edgeLabel;html=1;align=center;verticalAlign=middle;resizable=0;points=[];rounded=0;hachureGap=4;fontFamily=Architects Daughter;fontSource=https%3A%2F%2Ffonts.googleapis.com%2Fcss%3Ffamily%3DArchitects%2BDaughter;sketch=1;curveFitting=1;jiggle=2;labelBackgroundColor=none;" vertex="1" connectable="0" parent="jSzUtSrFljYYdIaAZMLE-269">
          <mxGeometry x="0.2655" relative="1" as="geometry">
            <mxPoint x="-55" y="-27" as="offset" />
          </mxGeometry>
        </mxCell>
        <mxCell id="jSzUtSrFljYYdIaAZMLE-271" value="P ≥ порог?" style="rhombus;strokeWidth=2;whiteSpace=wrap;labelBackgroundColor=none;rounded=0;sketch=1;curveFitting=1;jiggle=2;" vertex="1" parent="jSzUtSrFljYYdIaAZMLE-197">
          <mxGeometry x="2090" y="85.5" width="128" height="128" as="geometry" />
        </mxCell>
        <mxCell id="jSzUtSrFljYYdIaAZMLE-272" value="PostgreSQL&#xa;UPDATE product_id" style="whiteSpace=wrap;strokeWidth=2;labelBackgroundColor=none;rounded=0;sketch=1;curveFitting=1;jiggle=2;" vertex="1" parent="jSzUtSrFljYYdIaAZMLE-197">
          <mxGeometry x="2413" y="37" width="214" height="78" as="geometry" />
        </mxCell>
        <mxCell id="jSzUtSrFljYYdIaAZMLE-273" value="PostgreSQL&#xa;manual_review" style="whiteSpace=wrap;strokeWidth=2;labelBackgroundColor=none;rounded=0;sketch=1;curveFitting=1;jiggle=2;" vertex="1" parent="jSzUtSrFljYYdIaAZMLE-197">
          <mxGeometry x="2397" y="199" width="177" height="54" as="geometry" />
        </mxCell>
        <mxCell id="jSzUtSrFljYYdIaAZMLE-203" value="" style="group;fillColor=none;rounded=0;sketch=1;curveFitting=1;jiggle=2;labelBackgroundColor=none;strokeColor=default;textShadow=0;labelBorderColor=none;" vertex="1" connectable="0" parent="jSzUtSrFljYYdIaAZMLE-380">
          <mxGeometry x="66" y="789" width="429" height="469" as="geometry" />
        </mxCell>
        <mxCell id="jSzUtSrFljYYdIaAZMLE-204" value="&lt;span style=&quot;font-family: Helvetica;&quot;&gt;&lt;font style=&quot;font-size: 36px;&quot;&gt;&amp;nbsp;PostgreSQL&amp;nbsp;&lt;/font&gt;&lt;/span&gt;" style="text;html=1;align=center;verticalAlign=middle;whiteSpace=wrap;rounded=0;fontFamily=Architects Daughter;fontSource=https%3A%2F%2Ffonts.googleapis.com%2Fcss%3Ffamily%3DArchitects%2BDaughter;sketch=1;curveFitting=1;jiggle=2;labelBackgroundColor=none;" vertex="1" parent="jSzUtSrFljYYdIaAZMLE-203">
          <mxGeometry x="77" y="16" width="233" height="30" as="geometry" />
        </mxCell>
        <mxCell id="jSzUtSrFljYYdIaAZMLE-205" value="" style="group" vertex="1" connectable="0" parent="jSzUtSrFljYYdIaAZMLE-203">
          <mxGeometry x="62" y="270" width="260" height="160" as="geometry" />
        </mxCell>
        <mxCell id="jSzUtSrFljYYdIaAZMLE-206" value="Таблицы поставщиков (owner_id*)" style="whiteSpace=wrap;strokeWidth=2;labelBackgroundColor=none;rounded=0;sketch=1;curveFitting=1;jiggle=2;" vertex="1" parent="jSzUtSrFljYYdIaAZMLE-205">
          <mxGeometry width="260" height="160" as="geometry" />
        </mxCell>
        <mxCell id="jSzUtSrFljYYdIaAZMLE-207" value="&lt;span style=&quot;font-family: Helvetica;&quot;&gt;&lt;i&gt;&lt;font style=&quot;color: light-dark(rgb(0, 0, 0), rgb(133, 133, 133));&quot;&gt;Свежие выгрузки (остатки, цены),&amp;nbsp;&lt;/font&gt;&lt;/i&gt;&lt;/span&gt;&lt;div&gt;&lt;span style=&quot;font-family: Helvetica;&quot;&gt;&lt;i&gt;&lt;font style=&quot;color: light-dark(rgb(0, 0, 0), rgb(133, 133, 133));&quot;&gt;их надо «привязать» к товарам ind.&lt;/font&gt;&lt;/i&gt;&lt;/span&gt;&lt;/div&gt;" style="text;strokeColor=none;align=center;fillColor=none;html=1;verticalAlign=middle;whiteSpace=wrap;rounded=0;fontFamily=Architects Daughter;fontSource=https%3A%2F%2Ffonts.googleapis.com%2Fcss%3Ffamily%3DArchitects%2BDaughter;" vertex="1" parent="jSzUtSrFljYYdIaAZMLE-205">
          <mxGeometry y="6" width="259" height="62" as="geometry" />
        </mxCell>
        <mxCell id="jSzUtSrFljYYdIaAZMLE-209" value="" style="group" vertex="1" connectable="0" parent="jSzUtSrFljYYdIaAZMLE-203">
          <mxGeometry x="53" y="79" width="260" height="166" as="geometry" />
        </mxCell>
        <mxCell id="jSzUtSrFljYYdIaAZMLE-210" value="Таблица ind (434k)" style="whiteSpace=wrap;strokeWidth=2;labelBackgroundColor=none;rounded=0;sketch=1;curveFitting=1;jiggle=2;" vertex="1" parent="jSzUtSrFljYYdIaAZMLE-209">
          <mxGeometry x="9" width="250" height="163.5" as="geometry" />
        </mxCell>
        <mxCell id="jSzUtSrFljYYdIaAZMLE-211" value="&lt;font face=&quot;Helvetica&quot; color=&quot;#858585&quot;&gt;&lt;i&gt;Мастер-каталог, из которого берём «истинный» product_id.&lt;/i&gt;&lt;/font&gt;" style="text;strokeColor=none;align=center;fillColor=none;html=1;verticalAlign=middle;whiteSpace=wrap;rounded=0;fontFamily=Architects Daughter;fontSource=https%3A%2F%2Ffonts.googleapis.com%2Fcss%3Ffamily%3DArchitects%2BDaughter;" vertex="1" parent="jSzUtSrFljYYdIaAZMLE-209">
          <mxGeometry x="7" width="252" height="62" as="geometry" />
        </mxCell>
        <mxCell id="jSzUtSrFljYYdIaAZMLE-213" value="" style="group" vertex="1" connectable="0" parent="jSzUtSrFljYYdIaAZMLE-380">
          <mxGeometry x="547" y="499" width="1028" height="351" as="geometry" />
        </mxCell>
        <mxCell id="jSzUtSrFljYYdIaAZMLE-214" value="" style="rounded=1;whiteSpace=wrap;html=1;sketch=1;hachureGap=4;jiggle=2;curveFitting=1;fontFamily=Architects Daughter;fontSource=https%3A%2F%2Ffonts.googleapis.com%2Fcss%3Ffamily%3DArchitects%2BDaughter;arcSize=5;" vertex="1" parent="jSzUtSrFljYYdIaAZMLE-213">
          <mxGeometry width="1028" height="351" as="geometry" />
        </mxCell>
        <mxCell id="jSzUtSrFljYYdIaAZMLE-219" value="&lt;font style=&quot;font-size: 48px;&quot;&gt;Blob Storage + Azure Cost Management&lt;/font&gt;" style="text;html=1;align=center;verticalAlign=middle;resizable=0;points=[];autosize=1;strokeColor=none;fillColor=none;fontFamily=Architects Daughter;fontSource=https%3A%2F%2Ffonts.googleapis.com%2Fcss%3Ffamily%3DArchitects%2BDaughter;" vertex="1" parent="jSzUtSrFljYYdIaAZMLE-213">
          <mxGeometry x="52" y="7" width="920" height="70" as="geometry" />
        </mxCell>
        <mxCell id="jSzUtSrFljYYdIaAZMLE-224" value="" style="group" vertex="1" connectable="0" parent="jSzUtSrFljYYdIaAZMLE-213">
          <mxGeometry x="42" y="118" width="292" height="174" as="geometry" />
        </mxCell>
        <mxCell id="jSzUtSrFljYYdIaAZMLE-225" value="Azure Blob Storage&#xa;raw CSV" style="whiteSpace=wrap;strokeWidth=2;labelBackgroundColor=none;rounded=0;sketch=1;curveFitting=1;jiggle=2;strokeColor=light-dark(#000000,#E7FF51);" vertex="1" parent="jSzUtSrFljYYdIaAZMLE-224">
          <mxGeometry width="292" height="174" as="geometry" />
        </mxCell>
        <mxCell id="jSzUtSrFljYYdIaAZMLE-226" value="&lt;font face=&quot;Helvetica&quot; color=&quot;#7b7b7b&quot;&gt;&lt;i&gt;Хранит сырые файлы поставщика, лог-файлы и отчёты.&lt;/i&gt;&lt;/font&gt;" style="text;strokeColor=none;align=center;fillColor=none;html=1;verticalAlign=middle;whiteSpace=wrap;rounded=0;fontFamily=Architects Daughter;fontSource=https%3A%2F%2Ffonts.googleapis.com%2Fcss%3Ffamily%3DArchitects%2BDaughter;" vertex="1" parent="jSzUtSrFljYYdIaAZMLE-224">
          <mxGeometry x="20" y="5" width="259" height="62" as="geometry" />
        </mxCell>
        <mxCell id="jSzUtSrFljYYdIaAZMLE-230" value="" style="group" vertex="1" connectable="0" parent="jSzUtSrFljYYdIaAZMLE-213">
          <mxGeometry x="654" y="165" width="270" height="134" as="geometry" />
        </mxCell>
        <mxCell id="jSzUtSrFljYYdIaAZMLE-289" value="" style="group" vertex="1" connectable="0" parent="jSzUtSrFljYYdIaAZMLE-230">
          <mxGeometry width="270" height="134" as="geometry" />
        </mxCell>
        <mxCell id="jSzUtSrFljYYdIaAZMLE-221" value="Blob Logs + Cost Mgmt" style="whiteSpace=wrap;strokeWidth=2;labelBackgroundColor=none;rounded=0;sketch=1;curveFitting=1;jiggle=2;strokeColor=light-dark(#000000,#E7FF51);" vertex="1" parent="jSzUtSrFljYYdIaAZMLE-289">
          <mxGeometry y="4.1299999999999955" width="270" height="123.25" as="geometry" />
        </mxCell>
        <mxCell id="jSzUtSrFljYYdIaAZMLE-222" value="&lt;font face=&quot;Helvetica&quot; color=&quot;#7c7c7c&quot;&gt;&lt;i&gt;Складывает трассировки в Blob, шлёт алерты при перерасходе бюджета.&lt;span style=&quot;white-space:pre&quot;&gt;&#x9;&lt;/span&gt;&lt;/i&gt;&lt;/font&gt;" style="text;strokeColor=none;align=center;fillColor=none;html=1;verticalAlign=middle;whiteSpace=wrap;rounded=0;fontFamily=Architects Daughter;fontSource=https%3A%2F%2Ffonts.googleapis.com%2Fcss%3Ffamily%3DArchitects%2BDaughter;" vertex="1" parent="jSzUtSrFljYYdIaAZMLE-289">
          <mxGeometry x="5.5" width="259" height="62" as="geometry" />
        </mxCell>
        <mxCell id="jSzUtSrFljYYdIaAZMLE-288" value="" style="group" vertex="1" connectable="0" parent="jSzUtSrFljYYdIaAZMLE-380">
          <mxGeometry x="1726" y="574" width="823" height="282" as="geometry" />
        </mxCell>
        <mxCell id="jSzUtSrFljYYdIaAZMLE-278" value="" style="rounded=1;whiteSpace=wrap;html=1;sketch=1;hachureGap=4;jiggle=2;curveFitting=1;fontFamily=Architects Daughter;fontSource=https%3A%2F%2Ffonts.googleapis.com%2Fcss%3Ffamily%3DArchitects%2BDaughter;arcSize=5;" vertex="1" parent="jSzUtSrFljYYdIaAZMLE-288">
          <mxGeometry y="-231" width="828" height="513" as="geometry" />
        </mxCell>
        <mxCell id="jSzUtSrFljYYdIaAZMLE-300" value="" style="group" vertex="1" connectable="0" parent="jSzUtSrFljYYdIaAZMLE-288">
          <mxGeometry x="30" y="86" width="294" height="148" as="geometry" />
        </mxCell>
        <mxCell id="jSzUtSrFljYYdIaAZMLE-301" value="Azure Function /embed" style="whiteSpace=wrap;strokeWidth=2;labelBackgroundColor=none;rounded=0;sketch=1;curveFitting=1;jiggle=2;" vertex="1" parent="jSzUtSrFljYYdIaAZMLE-300">
          <mxGeometry width="294" height="148" as="geometry" />
        </mxCell>
        <mxCell id="jSzUtSrFljYYdIaAZMLE-302" value="&lt;font face=&quot;Helvetica&quot; color=&quot;#7b7b7b&quot;&gt;&lt;i&gt;Принимает батч товаров, вызывает модель эмбеддинга, возвращает векторы.&lt;/i&gt;&lt;/font&gt;" style="text;strokeColor=none;align=center;fillColor=none;html=1;verticalAlign=middle;whiteSpace=wrap;rounded=0;fontFamily=Architects Daughter;fontSource=https%3A%2F%2Ffonts.googleapis.com%2Fcss%3Ffamily%3DArchitects%2BDaughter;" vertex="1" parent="jSzUtSrFljYYdIaAZMLE-300">
          <mxGeometry x="18" y="4" width="259" height="62" as="geometry" />
        </mxCell>
        <mxCell id="jSzUtSrFljYYdIaAZMLE-348" style="edgeStyle=orthogonalEdgeStyle;rounded=0;sketch=1;hachureGap=4;jiggle=2;curveFitting=1;orthogonalLoop=1;jettySize=auto;html=1;entryX=0;entryY=0.5;entryDx=0;entryDy=0;fontFamily=Architects Daughter;fontSource=https%3A%2F%2Ffonts.googleapis.com%2Fcss%3Ffamily%3DArchitects%2BDaughter;" edge="1" parent="jSzUtSrFljYYdIaAZMLE-380" source="jSzUtSrFljYYdIaAZMLE-206" target="jSzUtSrFljYYdIaAZMLE-200">
          <mxGeometry relative="1" as="geometry" />
        </mxCell>
        <mxCell id="jSzUtSrFljYYdIaAZMLE-349" style="rounded=0;sketch=1;hachureGap=4;jiggle=2;curveFitting=1;orthogonalLoop=1;jettySize=auto;html=1;exitX=0.25;exitY=0;exitDx=0;exitDy=0;entryX=0.25;entryY=1;entryDx=0;entryDy=0;fontFamily=Architects Daughter;fontSource=https%3A%2F%2Ffonts.googleapis.com%2Fcss%3Ffamily%3DArchitects%2BDaughter;" edge="1" parent="jSzUtSrFljYYdIaAZMLE-380" source="jSzUtSrFljYYdIaAZMLE-200" target="jSzUtSrFljYYdIaAZMLE-225">
          <mxGeometry relative="1" as="geometry" />
        </mxCell>
        <mxCell id="jSzUtSrFljYYdIaAZMLE-351" style="rounded=0;sketch=1;hachureGap=4;jiggle=2;curveFitting=1;orthogonalLoop=1;jettySize=auto;html=1;entryX=0.086;entryY=-0.008;entryDx=0;entryDy=0;entryPerimeter=0;fontFamily=Architects Daughter;fontSource=https%3A%2F%2Ffonts.googleapis.com%2Fcss%3Ffamily%3DArchitects%2BDaughter;exitX=1;exitY=0.75;exitDx=0;exitDy=0;edgeStyle=orthogonalEdgeStyle;" edge="1" parent="jSzUtSrFljYYdIaAZMLE-380" source="jSzUtSrFljYYdIaAZMLE-225" target="jSzUtSrFljYYdIaAZMLE-233">
          <mxGeometry relative="1" as="geometry">
            <mxPoint x="735.0000000000005" y="786" as="sourcePoint" />
          </mxGeometry>
        </mxCell>
        <mxCell id="jSzUtSrFljYYdIaAZMLE-352" style="rounded=0;sketch=1;hachureGap=4;jiggle=2;curveFitting=1;orthogonalLoop=1;jettySize=auto;html=1;entryX=0;entryY=1;entryDx=0;entryDy=0;fontFamily=Architects Daughter;fontSource=https%3A%2F%2Ffonts.googleapis.com%2Fcss%3Ffamily%3DArchitects%2BDaughter;" edge="1" parent="jSzUtSrFljYYdIaAZMLE-380" source="jSzUtSrFljYYdIaAZMLE-232" target="jSzUtSrFljYYdIaAZMLE-301">
          <mxGeometry relative="1" as="geometry" />
        </mxCell>
        <mxCell id="jSzUtSrFljYYdIaAZMLE-304" value="" style="group" vertex="1" connectable="0" parent="jSzUtSrFljYYdIaAZMLE-380">
          <mxGeometry x="190" y="97" width="1028" height="282" as="geometry" />
        </mxCell>
        <mxCell id="jSzUtSrFljYYdIaAZMLE-305" value="" style="rounded=1;whiteSpace=wrap;html=1;sketch=1;hachureGap=4;jiggle=2;curveFitting=1;fontFamily=Architects Daughter;fontSource=https%3A%2F%2Ffonts.googleapis.com%2Fcss%3Ffamily%3DArchitects%2BDaughter;arcSize=5;" vertex="1" parent="jSzUtSrFljYYdIaAZMLE-304">
          <mxGeometry width="1028" height="282" as="geometry" />
        </mxCell>
        <mxCell id="jSzUtSrFljYYdIaAZMLE-306" value="&lt;font style=&quot;font-size: 48px;&quot;&gt;Azure AI Search&lt;/font&gt;" style="text;html=1;align=center;verticalAlign=middle;resizable=0;points=[];autosize=1;strokeColor=none;fillColor=none;fontFamily=Architects Daughter;fontSource=https%3A%2F%2Ffonts.googleapis.com%2Fcss%3Ffamily%3DArchitects%2BDaughter;" vertex="1" parent="jSzUtSrFljYYdIaAZMLE-304">
          <mxGeometry x="318" y="5.623931623931624" width="388" height="70" as="geometry" />
        </mxCell>
        <mxCell id="jSzUtSrFljYYdIaAZMLE-316" value="" style="group" vertex="1" connectable="0" parent="jSzUtSrFljYYdIaAZMLE-304">
          <mxGeometry x="85" y="88" width="260" height="150" as="geometry" />
        </mxCell>
        <mxCell id="jSzUtSrFljYYdIaAZMLE-317" value="Azure AI Search&#xa;Upsert {text + vector}" style="whiteSpace=wrap;strokeWidth=2;labelBackgroundColor=none;rounded=0;sketch=1;curveFitting=1;jiggle=2;" vertex="1" parent="jSzUtSrFljYYdIaAZMLE-316">
          <mxGeometry y="4" width="260" height="145" as="geometry" />
        </mxCell>
        <mxCell id="jSzUtSrFljYYdIaAZMLE-318" value="" style="group" vertex="1" connectable="0" parent="jSzUtSrFljYYdIaAZMLE-316">
          <mxGeometry x="5" width="249" height="150" as="geometry" />
        </mxCell>
        <mxCell id="jSzUtSrFljYYdIaAZMLE-319" value="&lt;font face=&quot;Helvetica&quot; color=&quot;#7b7b7b&quot;&gt;&lt;i&gt;Записывает документ {id, text, vector} в индекс.&lt;/i&gt;&lt;/font&gt;" style="text;strokeColor=none;align=center;fillColor=none;html=1;verticalAlign=middle;whiteSpace=wrap;rounded=0;fontFamily=Architects Daughter;fontSource=https%3A%2F%2Ffonts.googleapis.com%2Fcss%3Ffamily%3DArchitects%2BDaughter;" vertex="1" parent="jSzUtSrFljYYdIaAZMLE-318">
          <mxGeometry width="248" height="62" as="geometry" />
        </mxCell>
        <mxCell id="jSzUtSrFljYYdIaAZMLE-312" value="" style="group" vertex="1" connectable="0" parent="jSzUtSrFljYYdIaAZMLE-304">
          <mxGeometry x="716" y="86" width="260" height="152" as="geometry" />
        </mxCell>
        <mxCell id="jSzUtSrFljYYdIaAZMLE-313" value="Гибридный запрос&#xa;BM25 + HNSW" style="whiteSpace=wrap;strokeWidth=2;labelBackgroundColor=none;rounded=0;sketch=1;curveFitting=1;jiggle=2;" vertex="1" parent="jSzUtSrFljYYdIaAZMLE-312">
          <mxGeometry width="260" height="151.02564102564102" as="geometry" />
        </mxCell>
        <mxCell id="jSzUtSrFljYYdIaAZMLE-314" value="&lt;font face=&quot;Helvetica&quot; color=&quot;#838383&quot;&gt;&lt;i&gt;Одним вызовом ищет по тексту и вектору; RRF возвращает топ-N дубликатов.&lt;/i&gt;&lt;/font&gt;" style="text;strokeColor=none;align=center;fillColor=none;html=1;verticalAlign=middle;whiteSpace=wrap;rounded=0;fontFamily=Architects Daughter;fontSource=https%3A%2F%2Ffonts.googleapis.com%2Fcss%3Ffamily%3DArchitects%2BDaughter;" vertex="1" parent="jSzUtSrFljYYdIaAZMLE-312">
          <mxGeometry x="6" y="3.8974358974358974" width="248" height="60.41025641025641" as="geometry" />
        </mxCell>
        <mxCell id="jSzUtSrFljYYdIaAZMLE-372" style="rounded=0;sketch=1;hachureGap=4;jiggle=2;curveFitting=1;orthogonalLoop=1;jettySize=auto;html=1;exitX=1;exitY=0.25;exitDx=0;exitDy=0;entryX=0;entryY=0.25;entryDx=0;entryDy=0;fontFamily=Architects Daughter;fontSource=https%3A%2F%2Ffonts.googleapis.com%2Fcss%3Ffamily%3DArchitects%2BDaughter;" edge="1" parent="jSzUtSrFljYYdIaAZMLE-304" source="jSzUtSrFljYYdIaAZMLE-317" target="jSzUtSrFljYYdIaAZMLE-313">
          <mxGeometry relative="1" as="geometry" />
        </mxCell>
        <mxCell id="jSzUtSrFljYYdIaAZMLE-373" style="rounded=0;sketch=1;hachureGap=4;jiggle=2;curveFitting=1;orthogonalLoop=1;jettySize=auto;html=1;exitX=0;exitY=0.75;exitDx=0;exitDy=0;entryX=1;entryY=0.75;entryDx=0;entryDy=0;fontFamily=Architects Daughter;fontSource=https%3A%2F%2Ffonts.googleapis.com%2Fcss%3Ffamily%3DArchitects%2BDaughter;" edge="1" parent="jSzUtSrFljYYdIaAZMLE-304" source="jSzUtSrFljYYdIaAZMLE-313" target="jSzUtSrFljYYdIaAZMLE-317">
          <mxGeometry relative="1" as="geometry" />
        </mxCell>
        <mxCell id="jSzUtSrFljYYdIaAZMLE-353" value="" style="group" vertex="1" connectable="0" parent="jSzUtSrFljYYdIaAZMLE-380">
          <mxGeometry x="1712" width="1028" height="282" as="geometry" />
        </mxCell>
        <mxCell id="jSzUtSrFljYYdIaAZMLE-323" value="" style="rounded=1;whiteSpace=wrap;html=1;sketch=1;hachureGap=4;jiggle=2;curveFitting=1;fontFamily=Architects Daughter;fontSource=https%3A%2F%2Ffonts.googleapis.com%2Fcss%3Ffamily%3DArchitects%2BDaughter;arcSize=5;" vertex="1" parent="jSzUtSrFljYYdIaAZMLE-353">
          <mxGeometry width="1028" height="282" as="geometry" />
        </mxCell>
        <mxCell id="jSzUtSrFljYYdIaAZMLE-324" value="&lt;span style=&quot;font-size: 48px;&quot;&gt;Azure OpenAI&lt;/span&gt;" style="text;html=1;align=center;verticalAlign=middle;resizable=0;points=[];autosize=1;strokeColor=none;fillColor=none;fontFamily=Architects Daughter;fontSource=https%3A%2F%2Ffonts.googleapis.com%2Fcss%3Ffamily%3DArchitects%2BDaughter;" vertex="1" parent="jSzUtSrFljYYdIaAZMLE-353">
          <mxGeometry x="355" y="5.6239316239316395" width="315" height="70" as="geometry" />
        </mxCell>
        <mxCell id="jSzUtSrFljYYdIaAZMLE-334" value="" style="group" vertex="1" connectable="0" parent="jSzUtSrFljYYdIaAZMLE-353">
          <mxGeometry x="691" y="79" width="214.5" height="150" as="geometry" />
        </mxCell>
        <mxCell id="jSzUtSrFljYYdIaAZMLE-335" value="Azure OpenAI GPT‑4o mini" style="whiteSpace=wrap;strokeWidth=2;labelBackgroundColor=none;rounded=0;sketch=1;curveFitting=1;jiggle=2;" vertex="1" parent="jSzUtSrFljYYdIaAZMLE-334">
          <mxGeometry width="200" height="150" as="geometry" />
        </mxCell>
        <mxCell id="jSzUtSrFljYYdIaAZMLE-336" value="&lt;font face=&quot;Helvetica&quot; color=&quot;#838383&quot;&gt;&lt;i&gt;LLM-классификатор: «дубликат / не дубликат» + вероятность.&lt;/i&gt;&lt;/font&gt;" style="text;strokeColor=none;align=center;fillColor=none;html=1;verticalAlign=middle;whiteSpace=wrap;rounded=0;fontFamily=Architects Daughter;fontSource=https%3A%2F%2Ffonts.googleapis.com%2Fcss%3Ffamily%3DArchitects%2BDaughter;" vertex="1" parent="jSzUtSrFljYYdIaAZMLE-334">
          <mxGeometry x="11.5" y="5" width="177" height="62" as="geometry" />
        </mxCell>
        <mxCell id="jSzUtSrFljYYdIaAZMLE-338" value="" style="group" vertex="1" connectable="0" parent="jSzUtSrFljYYdIaAZMLE-353">
          <mxGeometry x="60" y="86" width="254" height="142" as="geometry" />
        </mxCell>
        <mxCell id="jSzUtSrFljYYdIaAZMLE-339" value="" style="group" vertex="1" connectable="0" parent="jSzUtSrFljYYdIaAZMLE-338">
          <mxGeometry width="254" height="142" as="geometry" />
        </mxCell>
        <mxCell id="jSzUtSrFljYYdIaAZMLE-340" value="Azure OpenAI&#xa;text‑embedding‑3‑small" style="whiteSpace=wrap;strokeWidth=2;labelBackgroundColor=none;rounded=0;sketch=1;curveFitting=1;jiggle=2;" vertex="1" parent="jSzUtSrFljYYdIaAZMLE-339">
          <mxGeometry width="254" height="134" as="geometry" />
        </mxCell>
        <mxCell id="jSzUtSrFljYYdIaAZMLE-341" value="&lt;font face=&quot;Helvetica&quot; color=&quot;#838383&quot;&gt;&lt;i&gt;Генерирует 1536-D эмбеддинг названия/описания/характеристик.&lt;/i&gt;&lt;/font&gt;" style="text;strokeColor=none;align=center;fillColor=none;html=1;verticalAlign=middle;whiteSpace=wrap;rounded=0;fontFamily=Architects Daughter;fontSource=https%3A%2F%2Ffonts.googleapis.com%2Fcss%3Ffamily%3DArchitects%2BDaughter;" vertex="1" parent="jSzUtSrFljYYdIaAZMLE-339">
          <mxGeometry x="10.40983606557377" y="-6.5" width="238.38524590163937" height="62" as="geometry" />
        </mxCell>
        <mxCell id="jSzUtSrFljYYdIaAZMLE-365" style="rounded=0;sketch=1;hachureGap=4;jiggle=2;curveFitting=1;orthogonalLoop=1;jettySize=auto;html=1;exitX=0.25;exitY=0;exitDx=0;exitDy=0;entryX=0.25;entryY=1;entryDx=0;entryDy=0;fontFamily=Architects Daughter;fontSource=https%3A%2F%2Ffonts.googleapis.com%2Fcss%3Ffamily%3DArchitects%2BDaughter;" edge="1" parent="jSzUtSrFljYYdIaAZMLE-380" source="jSzUtSrFljYYdIaAZMLE-302">
          <mxGeometry relative="1" as="geometry">
            <mxPoint x="1842.0061475409839" y="225" as="targetPoint" />
          </mxGeometry>
        </mxCell>
        <mxCell id="jSzUtSrFljYYdIaAZMLE-366" style="rounded=0;sketch=1;hachureGap=4;jiggle=2;curveFitting=1;orthogonalLoop=1;jettySize=auto;html=1;exitX=0.5;exitY=1;exitDx=0;exitDy=0;entryX=0.5;entryY=0;entryDx=0;entryDy=0;fontFamily=Architects Daughter;fontSource=https%3A%2F%2Ffonts.googleapis.com%2Fcss%3Ffamily%3DArchitects%2BDaughter;" edge="1" parent="jSzUtSrFljYYdIaAZMLE-380" target="jSzUtSrFljYYdIaAZMLE-302">
          <mxGeometry relative="1" as="geometry">
            <mxPoint x="1901.6024590163925" y="225" as="sourcePoint" />
          </mxGeometry>
        </mxCell>
        <mxCell id="jSzUtSrFljYYdIaAZMLE-369" style="edgeStyle=orthogonalEdgeStyle;rounded=0;sketch=1;hachureGap=4;jiggle=2;curveFitting=1;orthogonalLoop=1;jettySize=auto;html=1;exitX=0;exitY=0.75;exitDx=0;exitDy=0;entryX=0;entryY=0.5;entryDx=0;entryDy=0;fontFamily=Architects Daughter;fontSource=https%3A%2F%2Ffonts.googleapis.com%2Fcss%3Ffamily%3DArchitects%2BDaughter;elbow=vertical;" edge="1" parent="jSzUtSrFljYYdIaAZMLE-380" source="jSzUtSrFljYYdIaAZMLE-211" target="jSzUtSrFljYYdIaAZMLE-317">
          <mxGeometry relative="1" as="geometry" />
        </mxCell>
        <mxCell id="jSzUtSrFljYYdIaAZMLE-290" value="" style="group" vertex="1" connectable="0" parent="jSzUtSrFljYYdIaAZMLE-380">
          <mxGeometry x="2007" y="446" width="245" height="153" as="geometry" />
        </mxCell>
        <mxCell id="jSzUtSrFljYYdIaAZMLE-291" value="Azure Function /validate" style="whiteSpace=wrap;strokeWidth=2;labelBackgroundColor=none;rounded=0;sketch=1;curveFitting=1;jiggle=2;" vertex="1" parent="jSzUtSrFljYYdIaAZMLE-290">
          <mxGeometry width="239" height="153" as="geometry" />
        </mxCell>
        <mxCell id="jSzUtSrFljYYdIaAZMLE-292" value="&lt;font face=&quot;Helvetica&quot; color=&quot;#7c7c7c&quot;&gt;&lt;i&gt;Отправляет товар + кандидатов в LLM, получает isDuplicate, score.&lt;/i&gt;&lt;/font&gt;" style="text;strokeColor=none;align=center;fillColor=none;html=1;verticalAlign=middle;whiteSpace=wrap;rounded=0;fontFamily=Architects Daughter;fontSource=https%3A%2F%2Ffonts.googleapis.com%2Fcss%3Ffamily%3DArchitects%2BDaughter;" vertex="1" parent="jSzUtSrFljYYdIaAZMLE-290">
          <mxGeometry x="5" y="-3" width="229" height="62" as="geometry" />
        </mxCell>
        <mxCell id="jSzUtSrFljYYdIaAZMLE-374" style="edgeStyle=orthogonalEdgeStyle;rounded=0;sketch=1;hachureGap=4;jiggle=2;curveFitting=1;orthogonalLoop=1;jettySize=auto;html=1;exitX=1;exitY=0.5;exitDx=0;exitDy=0;entryX=0;entryY=0.5;entryDx=0;entryDy=0;fontFamily=Architects Daughter;fontSource=https%3A%2F%2Ffonts.googleapis.com%2Fcss%3Ffamily%3DArchitects%2BDaughter;" edge="1" parent="jSzUtSrFljYYdIaAZMLE-380" source="jSzUtSrFljYYdIaAZMLE-313" target="jSzUtSrFljYYdIaAZMLE-291">
          <mxGeometry relative="1" as="geometry">
            <Array as="points">
              <mxPoint x="1679" y="262" />
              <mxPoint x="1679" y="522" />
            </Array>
          </mxGeometry>
        </mxCell>
        <mxCell id="jSzUtSrFljYYdIaAZMLE-375" style="edgeStyle=orthogonalEdgeStyle;rounded=0;sketch=1;hachureGap=4;jiggle=2;curveFitting=1;orthogonalLoop=1;jettySize=auto;html=1;exitX=0.5;exitY=0;exitDx=0;exitDy=0;entryX=0;entryY=0.5;entryDx=0;entryDy=0;fontFamily=Architects Daughter;fontSource=https%3A%2F%2Ffonts.googleapis.com%2Fcss%3Ffamily%3DArchitects%2BDaughter;curved=1;" edge="1" parent="jSzUtSrFljYYdIaAZMLE-380" source="jSzUtSrFljYYdIaAZMLE-292" target="jSzUtSrFljYYdIaAZMLE-335">
          <mxGeometry relative="1" as="geometry" />
        </mxCell>
        <mxCell id="jSzUtSrFljYYdIaAZMLE-377" style="edgeStyle=orthogonalEdgeStyle;rounded=0;sketch=1;hachureGap=4;jiggle=2;curveFitting=1;orthogonalLoop=1;jettySize=auto;html=1;exitX=0.75;exitY=1;exitDx=0;exitDy=0;entryX=1;entryY=0.25;entryDx=0;entryDy=0;fontFamily=Architects Daughter;fontSource=https%3A%2F%2Ffonts.googleapis.com%2Fcss%3Ffamily%3DArchitects%2BDaughter;curved=1;" edge="1" parent="jSzUtSrFljYYdIaAZMLE-380" source="jSzUtSrFljYYdIaAZMLE-335" target="jSzUtSrFljYYdIaAZMLE-291">
          <mxGeometry relative="1" as="geometry" />
        </mxCell>
        <mxCell id="jSzUtSrFljYYdIaAZMLE-378" style="edgeStyle=orthogonalEdgeStyle;rounded=0;sketch=1;hachureGap=4;jiggle=2;curveFitting=1;orthogonalLoop=1;jettySize=auto;html=1;exitX=0.5;exitY=1;exitDx=0;exitDy=0;entryX=0;entryY=0.5;entryDx=0;entryDy=0;fontFamily=Architects Daughter;fontSource=https%3A%2F%2Ffonts.googleapis.com%2Fcss%3Ffamily%3DArchitects%2BDaughter;curved=1;" edge="1" parent="jSzUtSrFljYYdIaAZMLE-380" source="jSzUtSrFljYYdIaAZMLE-291" target="jSzUtSrFljYYdIaAZMLE-271">
          <mxGeometry relative="1" as="geometry" />
        </mxCell>
        <mxCell id="jSzUtSrFljYYdIaAZMLE-279" value="&lt;font style=&quot;font-size: 48px;&quot;&gt;Azure Functions&lt;/font&gt;" style="text;html=1;align=center;verticalAlign=middle;resizable=0;points=[];autosize=1;strokeColor=none;fillColor=none;fontFamily=Architects Daughter;fontSource=https%3A%2F%2Ffonts.googleapis.com%2Fcss%3Ffamily%3DArchitects%2BDaughter;" vertex="1" parent="jSzUtSrFljYYdIaAZMLE-380">
          <mxGeometry x="1949" y="357.0039316239315" width="382" height="70" as="geometry" />
        </mxCell>
        <mxCell id="jSzUtSrFljYYdIaAZMLE-274" value="Power Apps UI&#xa;ручная проверка" style="whiteSpace=wrap;strokeWidth=2;labelBackgroundColor=none;rounded=0;sketch=1;curveFitting=1;jiggle=2;" vertex="1" parent="jSzUtSrFljYYdIaAZMLE-380">
          <mxGeometry x="3371" y="1077" width="183" height="78" as="geometry" />
        </mxCell>
        <mxCell id="jSzUtSrFljYYdIaAZMLE-276" style="edgeStyle=orthogonalEdgeStyle;rounded=0;sketch=1;hachureGap=4;jiggle=2;curveFitting=1;orthogonalLoop=1;jettySize=auto;html=1;exitX=0.5;exitY=1;exitDx=0;exitDy=0;fontFamily=Architects Daughter;fontSource=https%3A%2F%2Ffonts.googleapis.com%2Fcss%3Ffamily%3DArchitects%2BDaughter;" edge="1" parent="jSzUtSrFljYYdIaAZMLE-380" source="jSzUtSrFljYYdIaAZMLE-274" target="jSzUtSrFljYYdIaAZMLE-274">
          <mxGeometry relative="1" as="geometry" />
        </mxCell>
        <mxCell id="jSzUtSrFljYYdIaAZMLE-275" value="" style="curved=1;startArrow=none;endArrow=block;exitX=1;exitY=0.5;entryX=0;entryY=0.5;rounded=0;labelBackgroundColor=none;fontColor=default;sketch=1;curveFitting=1;jiggle=2;" edge="1" parent="jSzUtSrFljYYdIaAZMLE-380" source="jSzUtSrFljYYdIaAZMLE-273" target="jSzUtSrFljYYdIaAZMLE-274">
          <mxGeometry relative="1" as="geometry">
            <Array as="points" />
          </mxGeometry>
        </mxCell>
        <mxCell id="jSzUtSrFljYYdIaAZMLE-381" style="edgeStyle=orthogonalEdgeStyle;rounded=0;sketch=1;hachureGap=4;jiggle=2;curveFitting=1;orthogonalLoop=1;jettySize=auto;html=1;exitX=0.75;exitY=0;exitDx=0;exitDy=0;entryX=0.5;entryY=1;entryDx=0;entryDy=0;fontFamily=Architects Daughter;fontSource=https%3A%2F%2Ffonts.googleapis.com%2Fcss%3Ffamily%3DArchitects%2BDaughter;" edge="1" parent="jSzUtSrFljYYdIaAZMLE-380" source="jSzUtSrFljYYdIaAZMLE-200" target="jSzUtSrFljYYdIaAZMLE-221">
          <mxGeometry relative="1" as="geometry" />
        </mxCell>
        <mxCell id="jSzUtSrFljYYdIaAZMLE-382" style="rounded=0;sketch=1;hachureGap=4;jiggle=2;curveFitting=1;orthogonalLoop=1;jettySize=auto;html=1;exitX=0;exitY=0.5;exitDx=0;exitDy=0;entryX=1;entryY=0.5;entryDx=0;entryDy=0;fontFamily=Architects Daughter;fontSource=https%3A%2F%2Ffonts.googleapis.com%2Fcss%3Ffamily%3DArchitects%2BDaughter;" edge="1" parent="jSzUtSrFljYYdIaAZMLE-380" source="jSzUtSrFljYYdIaAZMLE-301" target="jSzUtSrFljYYdIaAZMLE-221">
          <mxGeometry relative="1" as="geometry" />
        </mxCell>
        <mxCell id="jSzUtSrFljYYdIaAZMLE-385" style="edgeStyle=orthogonalEdgeStyle;rounded=0;sketch=1;hachureGap=4;jiggle=2;curveFitting=1;orthogonalLoop=1;jettySize=auto;html=1;exitX=0;exitY=0.25;exitDx=0;exitDy=0;fontFamily=Architects Daughter;fontSource=https%3A%2F%2Ffonts.googleapis.com%2Fcss%3Ffamily%3DArchitects%2BDaughter;" edge="1" parent="jSzUtSrFljYYdIaAZMLE-380" source="jSzUtSrFljYYdIaAZMLE-301">
          <mxGeometry relative="1" as="geometry">
            <mxPoint x="407" y="335" as="targetPoint" />
            <Array as="points">
              <mxPoint x="1619" y="697" />
              <mxPoint x="1619" y="433" />
              <mxPoint x="407" y="433" />
            </Array>
          </mxGeometry>
        </mxCell>
      </root>
    </mxGraphModel>
  </diagram>
</mxfile>
